Coordinates
version=1
nRows=16
nColumns=33
inDegrees=yes

Units are S.I. units (second, meters, Newtons, ...)
Angles are in degrees.

endheader
time	ground_thorax_rot_x	ground_thorax_rot_y	ground_thorax_rot_z	ground_thorax_tx	ground_thorax_ty	ground_thorax_tz	clav_prot_r	clav_elev_r	scapula_abduction_r	scapula_elevation_r	scapula_upward_rot_r	scapula_winging_r	shoulder_elv_r	plane_of_elev_r	axial_rot_r	elbow_flexion_r	pro_sup_r	wrist_flex_r	wrist_dev_r	clav_prot_l	clav_elev_l	scapula_abduction_l	scapula_elevation_l	scapula_upward_rot_l	scapula_winging_l	shoulder_elv_l	plane_of_elev_l	axial_rot_l	elbow_flexion_l	pro_sup_l	wrist_flex_l	wrist_dev_l
      5.70000000	     29.52341850	     27.91027203	     35.54791743	    -61.68833587	    789.02428703	    -36.54669432	     12.13945014	     34.69929633	     23.93654766	     45.00000000	    -45.00000000	  -2962.52012250	  -4967.22497147	     22.82636952	    179.99999979	   1085.81553459	    186.62847813	     13.28176342	     15.03569257	    -10.29909539	    -45.00000000	    -36.65788725	     45.00000000	    -45.00000000	   -976.88942802	  -1171.25699370	    137.22795023	   -139.44152386	   1789.35472867	     40.38646657	     12.56290298	    -15.48505420
      5.71000000	     29.60605664	     27.69670920	     35.38285464	    -64.20358429	    790.77524752	    -36.79149129	     12.11531806	     34.72935763	     23.97328535	     45.00000000	    -45.00000000	  -2962.71108683	  -4967.15049076	     22.86819996	    179.99999979	   1085.83386566	    186.44368526	     13.29042414	     15.04593806	    -10.16671213	    -45.00000000	    -36.81058655	     45.00000000	    -45.00000000	   -976.74524826	  -1171.13902354	    137.24052106	   -139.42105724	   1789.36432224	     40.48354533	     12.59411943	    -15.57900079
      5.72000000	     29.77975333	     27.45112522	     35.07129549	    -66.64635728	    792.57063740	    -37.02869468	     12.09619668	     34.71851429	     24.05369646	     45.00000000	    -45.00000000	  -2962.91867392	  -4967.10213926	     22.92055448	    179.99999979	   1085.83551449	    186.26826006	     13.30489755	     15.10214989	    -10.05605533	    -45.00000000	    -36.89693917	     45.00000000	    -45.00000000	   -976.58731346	  -1171.01366014	    137.17114823	   -139.34059426	   1789.37843670	     40.57457754	     12.66076972	    -15.70122611
      5.73000000	     29.90142111	     27.24974478	     34.85488131	    -69.01743259	    794.40522005	    -37.25789322	     12.16907663	     34.64408890	     24.03035218	     45.00000000	    -45.00000000	  -2963.08335048	  -4966.98775267	     22.94468575	    179.99999979	   1085.74565118	    186.07292678	     13.33781181	     15.09225635	    -10.01010546	    -45.00000000	    -36.98912659	     45.00000000	    -45.00000000	   -976.54900385	  -1170.86977365	    137.20730279	   -139.40009370	   1789.40330300	     40.66198641	     12.66715170	    -15.76959906
      5.74000000	     29.93976443	     27.14505223	     34.65856939	    -71.32165460	    796.27341718	    -37.47930205	     12.18949772	     34.58298087	     23.88344888	     45.00000000	    -45.00000000	  -2963.21458217	  -4966.89775346	     22.96864396	    179.99999979	   1085.72821733	    185.87219598	     13.34409592	     15.07414558	     -9.76257453	    -45.00000000	    -37.22086439	     45.00000000	    -45.00000000	   -976.47806053	  -1170.74586175	    137.19263792	   -139.34610575	   1789.38202061	     40.74830258	     12.68493728	    -15.81798270
      5.75000000	     30.03587715	     26.94896624	     34.45652459	    -73.56326395	    798.16741432	    -37.69309598	     12.24274008	     34.49216670	     23.80672900	     45.00000000	    -45.00000000	  -2963.33712030	  -4966.72374653	     23.04289463	    179.99999979	   1085.66493619	    185.67144582	     13.35861937	     15.05542184	     -9.64609957	    -45.00000000	    -37.36403156	     45.00000000	    -45.00000000	   -976.40095250	  -1170.63933089	    137.21936419	   -139.39810137	   1789.41453023	     40.81675856	     12.70822836	    -15.89314446
      5.76000000	     30.21403965	     26.65698972	     34.24332640	    -75.75243273	    800.08519698	    -37.89990789	     12.14503260	     34.67252930	     24.16200338	     45.00000000	    -45.00000000	  -2963.63480433	  -4966.78835454	     23.06196155	    179.99999979	   1085.77883286	    185.50527797	     13.35584247	     15.08266887	     -9.69471634	    -45.00000000	    -37.41720846	     45.00000000	    -45.00000000	   -976.23942700	  -1170.51414980	    137.19079314	   -139.18959618	   1789.42926868	     40.85054308	     12.79958503	    -16.04033043
      5.77000000	     30.29338695	     26.48451315	     34.00074961	    -77.88760085	    802.01672909	    -38.09882496	     12.11873639	     34.54103827	     24.09751888	     45.00000000	    -45.00000000	  -2963.77520710	  -4966.67969667	     23.08544763	    179.99999979	   1085.63559606	    185.31939352	     13.40462175	     15.11528841	     -9.38461573	    -45.00000000	    -37.58437650	     45.00000000	    -45.00000000	   -976.08061638	  -1170.36994173	    137.07803981	   -139.10972253	   1789.40038269	     40.87393786	     12.87097805	    -16.10433352
      5.78000000	     30.43480068	     26.31860334	     33.79678285	    -79.97405419	    803.96146897	    -38.28939664	     12.14242126	     34.55845647	     24.11645367	     45.00000000	    -45.00000000	  -2963.97232705	  -4966.61812470	     23.13422967	    179.99999979	   1085.61222453	    185.11410280	     13.41728274	     15.08115508	     -9.43158185	    -45.00000000	    -37.66379311	     45.00000000	    -45.00000000	   -976.08561534	  -1170.25151730	    137.12092521	   -139.14549165	   1789.41462787	     40.86273718	     12.90482894	    -16.16948525
      5.79000000	     30.50748471	     26.09728633	     33.58632943	    -82.00036117	    805.90575479	    -38.46949273	     12.04204950	     34.57511514	     24.18255046	     45.00000000	    -45.00000000	  -2964.14627351	  -4966.55557662	     23.18731842	    179.99999979	   1085.62745997	    184.90248682	     13.42501150	     15.10208415	     -9.15292854	    -45.00000000	    -37.83093491	     45.00000000	    -45.00000000	   -975.87166814	  -1170.15130041	    137.02393873	   -138.98952104	   1789.38592262	     40.82835909	     13.00357617	    -16.25981782
      5.80000000	     30.64426242	     25.91073786	     33.42419752	    -83.97442072	    807.85637222	    -38.63890597	     12.09872281	     34.52195316	     24.21034463	     45.00000000	    -45.00000000	  -2964.31535008	  -4966.46248512	     23.23090490	    179.99999979	   1085.53018190	    184.66163340	     13.45613851	     15.07550852	     -9.24231006	    -45.00000000	    -37.87648152	     45.00000000	    -45.00000000	   -975.87144578	  -1170.02457061	    137.11613002	   -139.03096413	   1789.39112360	     40.76052385	     13.04561443	    -16.31432939
      5.81000000	     30.71462012	     25.75972836	     33.26025232	    -85.88387861	    809.80123129	    -38.79611282	     12.02412805	     34.53635273	     24.21798605	     45.00000000	    -45.00000000	  -2964.49156133	  -4966.40870315	     23.28399747	    179.99999979	   1085.52821575	    184.38871644	     13.46701520	     15.07641836	     -8.96356347	    -45.00000000	    -38.08062456	     45.00000000	    -45.00000000	   -975.70126433	  -1169.91908707	    137.05163660	   -138.87358340	   1789.35597642	     40.67230188	     13.13070164	    -16.37953856
      5.82000000	     30.82086222	     25.55062533	     33.07897538	    -87.72650397	    811.73854709	    -38.94118041	     12.02201019	     34.52302951	     24.31315068	     45.00000000	    -45.00000000	  -2964.64927925	  -4966.35890045	     23.29770026	    179.99999979	   1085.53375906	    184.08187377	     13.47071115	     15.07960123	     -8.95486673	    -45.00000000	    -38.15528433	     45.00000000	    -45.00000000	   -975.66175548	  -1169.80591803	    137.05028869	   -138.81905554	   1789.34410295	     40.55509489	     13.21603713	    -16.45382121
      5.83000000	     30.92984606	     25.40559324	     32.85868463	    -89.49955879	    813.66611279	    -39.07490571	     11.99665874	     34.51051278	     24.35016224	     45.00000000	    -45.00000000	  -2964.81832554	  -4966.30069632	     23.32373237	    179.99999979	   1085.52812111	    183.72936183	     13.47845424	     15.09295705	     -8.79064729	    -45.00000000	    -38.27451459	     45.00000000	    -45.00000000	   -975.56366604	  -1169.68188658	    136.97870841	   -138.71108685	   1789.32252138	     40.41512484	     13.30910515	    -16.52649807
      5.84000000	     31.00282905	     25.26075459	     32.73810989	    -91.20017957	    815.58186097	    -39.19857987	     12.02165995	     34.44434218	     24.30085221	     45.00000000	    -45.00000000	  -2964.95572665	  -4966.19144561	     23.38372317	    179.99999979	   1085.45243757	    183.32624694	     13.49390745	     15.08133442	     -8.67867558	    -45.00000000	    -38.42803990	     45.00000000	    -45.00000000	   -975.48624454	  -1169.59455400	    136.99780628	   -138.66410256	   1789.31104658	     40.24710012	     13.37613652	    -16.58127546
      5.85000000	     31.09193881	     25.05450224	     32.57154916	    -92.82618273	    817.48445296	    -39.31403382	     11.97304050	     34.48937673	     24.45239276	     45.00000000	    -45.00000000	  -2965.13183244	  -4966.20745256	     23.41662998	    179.99999979	   1085.52224609	    182.91088346	     13.48860466	     15.10843639	     -8.56450667	    -45.00000000	    -38.53466985	     45.00000000	    -45.00000000	   -975.38418476	  -1169.47885952	    136.95324742	   -138.48893098	   1789.25706185	     40.06629986	     13.49454977	    -16.68258500
